<svg version="1.1"
     baseProfile="full"
     width="288" height="384" viewBox="0 0 288 384"
     xmlns="http://www.w3.org/2000/svg">

  <defs>
	<mask id="inner">
		<polygon points="290,382 2,382 2,100 100,2 290,2" fill="#FFF" stroke="#FFF" stroke-width="3" stroke-linejoin="round"/>
		<rect x="80" y="50" height="50" width="180" rx="25" ry="25" stroke="#2FFF00" stroke-width="3" stroke-linejoin="round"/>
	</mask>
  </defs>
  <g mask="url(#inner)">
    <rect x="0" y="0" width="288" height="384" fill="#13CB50" fill-opacity = "0.25"/>
	<polygon points="290,382 2,382 2,100 100,2 290,2" fill-opacity = "0" stroke="#2FFF00" stroke-width="3" stroke-linejoin="round"/>
	<rect x="80" y="50" height="50" width="180" rx="25" ry="25" fill-opacity = "0" stroke="#2FFF00" stroke-width="3" stroke-linejoin="round"/>
	<rect x="80" y="196" height="100" width="130" rx="10" ry="10" fill-opacity="0" stroke="#2FFF00" stroke-width="6" />
	<line x1="65" y1="181" x2="35" y2="145" stroke="#2FFF00" stroke-width="6" stroke-linecap="round"/>
	<line x1="65" y1="311" x2="35" y2="347" stroke="#2FFF00" stroke-width="6" stroke-linecap="round"/>
	<line x1="225" y1="311" x2="255" y2="347" stroke="#2FFF00" stroke-width="6" stroke-linecap="round"/>
	<line x1="225" y1="181" x2="255" y2="145" stroke="#2FFF00" stroke-width="6" stroke-linecap="round"/>
	<text x="145" y="246" dominant-baseline="middle" font-family="Arial, Helvetica, sans-serif" text-anchor="middle" fill="#2FFF00" font-weight="bold" font-size="35">
		100%
	</text>
  </g>
</svg>